<mxfile host="Electron" modified="2024-07-06T14:44:45.797Z" agent="Mozilla/5.0 (Windows NT 10.0; Win64; x64) AppleWebKit/537.36 (KHTML, like Gecko) draw.io/24.4.13 Chrome/124.0.6367.207 Electron/30.0.6 Safari/537.36" etag="Vk3CLy7qUHY_IAcD-NgG" version="24.4.13" type="device">
  <diagram name="Page-1" id="Xse8WK59IOAnQLQ-py6_">
    <mxGraphModel dx="1669" dy="478" grid="1" gridSize="5" guides="0" tooltips="1" connect="0" arrows="0" fold="1" page="1" pageScale="1" pageWidth="850" pageHeight="1100" math="0" shadow="0">
      <root>
        <mxCell id="0" />
        <mxCell id="1" parent="0" />
        <mxCell id="wF1ciALJRRrJ7pzbPHmN-151" value="" style="ellipse;whiteSpace=wrap;html=1;fillColor=#00CC00;" vertex="1" parent="1">
          <mxGeometry x="-587.5" y="475" width="20" height="20" as="geometry" />
        </mxCell>
        <mxCell id="wF1ciALJRRrJ7pzbPHmN-152" value="" style="endArrow=none;html=1;rounded=0;" edge="1" parent="1">
          <mxGeometry width="50" height="50" relative="1" as="geometry">
            <mxPoint x="-715" y="535" as="sourcePoint" />
            <mxPoint x="-577.5" y="495" as="targetPoint" />
          </mxGeometry>
        </mxCell>
        <mxCell id="wF1ciALJRRrJ7pzbPHmN-153" value="" style="endArrow=none;html=1;rounded=0;" edge="1" parent="1">
          <mxGeometry width="50" height="50" relative="1" as="geometry">
            <mxPoint x="-450" y="535" as="sourcePoint" />
            <mxPoint x="-577.5" y="495" as="targetPoint" />
          </mxGeometry>
        </mxCell>
        <mxCell id="wF1ciALJRRrJ7pzbPHmN-155" value="" style="endArrow=none;html=1;rounded=0;" edge="1" parent="1">
          <mxGeometry width="50" height="50" relative="1" as="geometry">
            <mxPoint x="-625" y="535" as="sourcePoint" />
            <mxPoint x="-577.5" y="495" as="targetPoint" />
          </mxGeometry>
        </mxCell>
        <mxCell id="wF1ciALJRRrJ7pzbPHmN-156" value="" style="endArrow=none;html=1;rounded=0;" edge="1" parent="1">
          <mxGeometry width="50" height="50" relative="1" as="geometry">
            <mxPoint x="-540" y="535" as="sourcePoint" />
            <mxPoint x="-577.5" y="495" as="targetPoint" />
          </mxGeometry>
        </mxCell>
        <mxCell id="wF1ciALJRRrJ7pzbPHmN-223" value="" style="rounded=0;whiteSpace=wrap;html=1;fillColor=#00CC00;" vertex="1" parent="1">
          <mxGeometry x="-160" y="340" width="200" height="200" as="geometry" />
        </mxCell>
        <mxCell id="wF1ciALJRRrJ7pzbPHmN-227" value="" style="rounded=0;whiteSpace=wrap;html=1;" vertex="1" parent="1">
          <mxGeometry x="-360" y="340" width="200" height="200" as="geometry" />
        </mxCell>
        <mxCell id="wF1ciALJRRrJ7pzbPHmN-256" value="" style="rounded=0;whiteSpace=wrap;html=1;" vertex="1" parent="1">
          <mxGeometry x="-725" y="535" width="20" height="20" as="geometry" />
        </mxCell>
        <mxCell id="wF1ciALJRRrJ7pzbPHmN-260" value="" style="rounded=0;whiteSpace=wrap;html=1;fillColor=#00CC00;" vertex="1" parent="1">
          <mxGeometry x="-460" y="535" width="20" height="20" as="geometry" />
        </mxCell>
        <mxCell id="wF1ciALJRRrJ7pzbPHmN-261" value="" style="rounded=0;whiteSpace=wrap;html=1;fillColor=#00CC00;" vertex="1" parent="1">
          <mxGeometry x="-635" y="535" width="20" height="20" as="geometry" />
        </mxCell>
        <mxCell id="wF1ciALJRRrJ7pzbPHmN-262" value="" style="rounded=0;whiteSpace=wrap;html=1;" vertex="1" parent="1">
          <mxGeometry x="-550" y="535" width="20" height="20" as="geometry" />
        </mxCell>
        <mxCell id="wF1ciALJRRrJ7pzbPHmN-263" value="" style="rounded=0;whiteSpace=wrap;html=1;" vertex="1" parent="1">
          <mxGeometry x="-160" y="540" width="200" height="200" as="geometry" />
        </mxCell>
        <mxCell id="wF1ciALJRRrJ7pzbPHmN-264" value="" style="rounded=0;whiteSpace=wrap;html=1;fillColor=#00CC00;" vertex="1" parent="1">
          <mxGeometry x="-360" y="540" width="200" height="200" as="geometry" />
        </mxCell>
      </root>
    </mxGraphModel>
  </diagram>
</mxfile>
